<svg width="32" height="32" viewBox="0 0 32 32"  xmlns="http://www.w3.org/2000/svg">
<g clip-path="url(#clip0_151_1584)">
<path d="M5.26667 14.6667H26.7333C27.4329 14.6667 28 15.2338 28 15.9334V16.0667C28 16.7662 27.4329 17.3334 26.7333 17.3334H5.26667C4.56711 17.3334 4 16.7662 4 16.0667V15.9334C4 15.2338 4.56711 14.6667 5.26667 14.6667Z" />
<path d="M5.26667 21.3333H26.7333C27.4329 21.3333 28 21.9004 28 22.6V22.7333C28 23.4329 27.4329 24 26.7333 24H5.26667C4.56711 24 4 23.4329 4 22.7333V22.6C4 21.9004 4.56711 21.3333 5.26667 21.3333Z" />
<path d="M5.26667 8H26.7333C27.4329 8 28 8.56711 28 9.26667V9.4C28 10.0996 27.4329 10.6667 26.7333 10.6667H5.26667C4.56711 10.6667 4 10.0996 4 9.4V9.26667C4 8.56711 4.56711 8 5.26667 8Z" />
</g>
<defs>
<clipPath id="clip0_151_1584">
<rect width="32" height="32"  transform="matrix(-1 0 0 1 32 0)"/>
</clipPath>
</defs>
</svg>
