<svg width="10" height="10" viewBox="0 0 10 10" fill="none" xmlns="http://www.w3.org/2000/svg">
<path d="M8.75 3.75H1.25M7.08333 1.25V2.08333M2.91667 1.25V2.08333M7.5 5H6.66667M5.41667 5H4.58333M3.33333 5H2.5M7.5 6.25H6.66667M5.41667 6.25H4.58333M3.33333 6.25H2.5M7.5 7.5H6.66667M5.41667 7.5H4.58333M3.33333 7.5H2.5M7.41667 8.75H2.58333C2.11663 8.75 1.88325 8.75 1.705 8.65917C1.54821 8.57929 1.42071 8.45179 1.34083 8.295C1.25 8.11675 1.25 7.88337 1.25 7.41667V3.41667C1.25 2.94995 1.25 2.7166 1.34083 2.53834C1.42071 2.38154 1.54821 2.25405 1.705 2.17416C1.88325 2.08333 2.11663 2.08333 2.58333 2.08333H7.41667C7.88338 2.08333 8.11673 2.08333 8.29499 2.17416C8.4518 2.25405 8.57928 2.38154 8.65917 2.53834C8.75 2.7166 8.75 2.94995 8.75 3.41667V7.41667C8.75 7.88337 8.75 8.11675 8.65917 8.295C8.57928 8.45179 8.4518 8.57929 8.29499 8.65917C8.11673 8.75 7.88338 8.75 7.41667 8.75Z" stroke="#034168" stroke-width="0.5" stroke-linecap="round"/>
</svg>
