<svg width="20" height="21" viewBox="0 0 20 21"  xmlns="http://www.w3.org/2000/svg">
<path d="M3.7486 1.75192C3.58362 1.75192 3.42536 1.81729 3.30848 1.93373C3.1916 2.05016 3.12562 2.20817 3.125 2.37315V18.6221C3.125 18.967 3.40373 19.2481 3.7486 19.2481H16.2442C16.3266 19.2484 16.4082 19.2324 16.4844 19.2011C16.5607 19.1698 16.6299 19.1237 16.6883 19.0656C16.7467 19.0074 16.793 18.9383 16.8246 18.8622C16.8562 18.7861 16.8725 18.7045 16.8725 18.6221V5.49586C16.8716 5.3308 16.8054 5.1728 16.6882 5.05651L13.5655 1.92907C13.4468 1.81359 13.2871 1.74988 13.1215 1.75192H3.7486ZM4.37692 3.00147H12.1861V5.81002C12.1861 6.15489 12.4624 6.43598 12.8097 6.43835H15.6229V17.9985H4.37692V3.00147ZM13.438 3.5731L15.0513 5.18643H13.438V3.5731ZM6.87131 7.99734C6.70561 7.99734 6.54669 8.06316 6.42952 8.18033C6.31236 8.2975 6.24653 8.45642 6.24653 8.62212C6.24653 8.78782 6.31236 8.94673 6.42952 9.0639C6.54669 9.18107 6.70561 9.2469 6.87131 9.2469H13.1215C13.2875 9.2469 13.4467 9.18095 13.5641 9.06356C13.6815 8.94617 13.7474 8.78695 13.7474 8.62094C13.7474 8.45492 13.6815 8.29571 13.5641 8.17832C13.4467 8.06093 13.2875 7.99498 13.1215 7.99498L6.87131 7.99734ZM6.87131 11.1248C6.70529 11.1248 6.54608 11.1907 6.42869 11.3081C6.3113 11.4255 6.24535 11.5847 6.24535 11.7507C6.24535 11.9167 6.3113 12.076 6.42869 12.1934C6.54608 12.3107 6.70529 12.3767 6.87131 12.3767H13.1215C13.2875 12.3767 13.4467 12.3107 13.5641 12.1934C13.6815 12.076 13.7474 11.9167 13.7474 11.7507C13.7474 11.5847 13.6815 11.4255 13.5641 11.3081C13.4467 11.1907 13.2875 11.1248 13.1215 11.1248H6.87131ZM6.87131 14.2475C6.70529 14.2475 6.54608 14.3134 6.42869 14.4308C6.3113 14.5482 6.24535 14.7074 6.24535 14.8734C6.24535 15.0395 6.3113 15.1987 6.42869 15.3161C6.54608 15.4335 6.70529 15.4994 6.87131 15.4994H13.1215C13.2875 15.4994 13.4467 15.4335 13.5641 15.3161C13.6815 15.1987 13.7474 15.0395 13.7474 14.8734C13.7474 14.7074 13.6815 14.5482 13.5641 14.4308C13.4467 14.3134 13.2875 14.2475 13.1215 14.2475H6.87131Z"  stroke-width="0.5"/>
</svg>
