<svg width="21" height="21" viewBox="0 0 21 21"  xmlns="http://www.w3.org/2000/svg">
<path d="M4.61982 2.7888H7.13982C8.06769 2.7888 8.81982 3.54096 8.81982 4.4688V6.9888C8.81982 7.91664 8.06769 8.66879 7.13982 8.66879H4.61982C3.69196 8.66879 2.93982 7.91664 2.93982 6.9888V4.4688C2.93982 3.54096 3.69196 2.7888 4.61982 2.7888Z"  stroke-width="2" stroke-linecap="round" stroke-linejoin="round"/>
<path d="M13.8601 2.7888H16.3801C17.3079 2.7888 18.0601 3.54096 18.0601 4.4688V6.9888C18.0601 7.91664 17.3079 8.66879 16.3801 8.66879H13.8601C12.9322 8.66879 12.1801 7.91664 12.1801 6.9888V4.4688C12.1801 3.54096 12.9322 2.7888 13.8601 2.7888Z"  stroke-width="2" stroke-linecap="round" stroke-linejoin="round"/>
<path d="M4.61982 12.0288H7.13982C8.06769 12.0288 8.81982 12.7809 8.81982 13.7088V16.2288C8.81982 17.1567 8.06769 17.9088 7.13982 17.9088H4.61982C3.69196 17.9088 2.93982 17.1567 2.93982 16.2288V13.7088C2.93982 12.7809 3.69196 12.0288 4.61982 12.0288Z"  stroke-width="2" stroke-linecap="round" stroke-linejoin="round"/>
<path d="M13.8601 12.0288H16.3801C17.3079 12.0288 18.0601 12.7809 18.0601 13.7088V16.2288C18.0601 17.1567 17.3079 17.9088 16.3801 17.9088H13.8601C12.9322 17.9088 12.1801 17.1567 12.1801 16.2288V13.7088C12.1801 12.7809 12.9322 12.0288 13.8601 12.0288Z"  stroke-width="2" stroke-linecap="round" stroke-linejoin="round"/>
</svg>
