<svg width="22" height="22" viewBox="0 0 22 22" fill="none" xmlns="http://www.w3.org/2000/svg">
<path d="M1.7908 10.9897C1.79284 11.0472 1.8093 11.1287 1.83055 11.2182C2.05203 11.2711 4.30521 11.6295 5.09211 11.7576C5.879 11.8856 6.98949 11.9298 7.63932 11.974C8.2932 12.016 12.4762 12.0595 13.4914 12.0714C14.5106 12.081 16.944 12.1261 18.0962 12.1045C19.2485 12.0829 19.9872 11.4274 20.1188 10.9971C19.9671 10.5643 19.1991 9.9086 18.048 9.88694C16.8969 9.86528 14.4637 9.91069 13.4476 9.91532C12.4298 9.9262 8.24868 9.96691 7.59666 10.0092C6.94463 10.0515 5.8384 10.0955 5.0595 10.2243C4.27653 10.3553 2.03882 10.708 1.81662 10.7621C1.79982 10.8514 1.79116 10.9362 1.7908 10.9897Z" fill="white"/>
<path d="M13.6765 10.0237C13.5912 9.60196 8.47836 2.86648 8.09326 2.36063C7.70817 1.85478 7.33431 1.12406 6.85418 1.14557C6.70681 1.1528 6.43996 1.11444 6.6027 1.46658C6.76784 1.82271 8.96976 7.27494 9.17331 7.69504C9.23242 7.8115 9.42707 9.30829 9.37693 10.0186C9.32679 10.729 13.6765 10.0237 13.6765 10.0237Z" fill="white"/>
<path d="M11.7068 8.1805C12.2423 8.48546 13.162 8.49173 13.6858 8.48863C13.804 8.48694 13.9026 8.3895 13.8985 8.27448L13.8798 7.31452C13.8798 7.19724 13.7777 7.09938 13.6595 7.10107C13.1373 7.09792 12.2143 7.10416 11.6934 7.40958L11.7068 8.1805Z" fill="white"/>
<path d="M5.70008 10.2669C4.97554 10.1523 4.15597 9.48265 3.7324 9.03018C3.36591 8.63663 2.71865 7.98319 2.44766 7.71253C2.38172 7.64787 2.29695 7.615 2.20793 7.61114C2.04282 7.6069 1.81289 7.61203 1.65018 7.61179C1.5595 7.61418 1.49414 7.70382 1.52758 7.78654L2.62315 10.7556L5.70008 10.2669Z" fill="white"/>
<path d="M13.7123 11.9637C13.6455 12.3846 8.8026 19.1158 8.43568 19.6235C8.06876 20.1312 7.72867 20.8639 7.24713 20.8382C7.09659 20.8312 6.8332 20.8709 6.98293 20.5158C7.13266 20.1608 9.11391 14.7099 9.30131 14.2913C9.35393 14.1714 9.49106 12.6771 9.41002 11.9651C9.32898 11.2531 13.7123 11.9637 13.7123 11.9637Z" fill="white"/>
<path d="M11.8174 13.8064C12.3384 13.501 13.2613 13.4947 13.7835 13.4979C13.9041 13.5002 14.0039 13.594 14.0039 13.7113L14.0225 14.6713C14.0226 14.7886 13.928 14.8837 13.8098 14.8854C13.286 14.8885 12.3663 14.8823 11.8308 14.5773L11.8174 13.8064Z" fill="white"/>
<path d="M5.73058 11.7158C5.01169 11.8272 4.21699 12.4979 3.81643 12.9496C3.46647 13.3412 2.84595 13.9951 2.58426 14.263C2.52554 14.3276 2.43947 14.3648 2.34637 14.3632C2.17958 14.3652 1.95127 14.3641 1.7926 14.3616C1.69951 14.36 1.63613 14.2726 1.65939 14.185L2.6347 11.2177L5.73058 11.7158Z" fill="white"/>
<path d="M2.33472 11.1331C2.33472 11.1331 1.54638 11.1019 1.21924 10.9904C1.54061 10.8758 2.32857 10.8433 2.32857 10.8433L2.33472 11.1331Z" fill="white"/>
</svg>
