<svg width="21" height="21" viewBox="0 0 21 21"  xmlns="http://www.w3.org/2000/svg">
    <g clip-path="url(#clip0_197_2109)">
        <path fill-rule="evenodd" clip-rule="evenodd"
              d="M3.93745 18.5H17.0618C17.7682 18.5 18.2898 17.803 18.0234 17.162C16.7872 14.198 13.8831 12.5 10.5001 12.5C7.11621 12.5 4.21204 14.198 2.97586 17.162C2.70943 17.803 3.23106 18.5 3.93745 18.5ZM14.5833 6.49998C14.5833 4.29398 12.751 2.49998 10.5001 2.49998C8.24827 2.49998 6.41697 4.29398 6.41697 6.49998C6.41697 8.70599 8.24827 10.5 10.5001 10.5C12.751 10.5 14.5833 8.70599 14.5833 6.49998ZM0.544325 18.136C1.28644 14.777 3.60773 12.298 6.66298 11.173C5.04399 9.89596 4.09976 7.83093 4.44683 5.56993C4.84902 2.94693 7.0764 0.847977 9.76517 0.541977C13.4768 0.118977 16.6249 2.94898 16.6249 6.49998C16.6249 8.38998 15.7307 10.074 14.3363 11.173C17.3926 12.298 19.7128 14.777 20.456 18.136C20.7255 19.357 19.721 20.5 18.446 20.5H2.55427C1.27828 20.5 0.273813 19.357 0.544325 18.136Z"
              />
    </g>
    <defs>
        <clipPath id="clip0_197_2109">
            <rect width="20" height="20"  transform="matrix(-1 0 0 1 20.5 0.5)"/>
        </clipPath>
    </defs>
</svg>
