<svg width="15" height="15" viewBox="0 0 15 15" fill="none" xmlns="http://www.w3.org/2000/svg">
<g id="Page-1">
<g id="Icon-Set">
<path id="search" fill-rule="evenodd" clip-rule="evenodd" d="M5.89287 10.7044C3.13907 10.7044 0.906704 8.51096 0.906704 5.80094C0.906704 3.09091 3.13907 0.893143 5.89287 0.893143C8.64668 0.893143 10.8795 3.09091 10.8795 5.80094C10.8795 8.51096 8.64668 10.7044 5.89287 10.7044ZM13.8732 13.2437L10.2574 9.68428C11.2039 8.65544 11.7858 7.29824 11.7858 5.80094C11.7858 2.59619 9.14753 0 5.89287 0C2.63822 0 0 2.59619 0 5.80094C0 9.0013 2.63822 11.5975 5.89287 11.5975C7.29911 11.5975 8.58889 11.1115 9.60198 10.3016L13.2323 13.8741C13.4096 14.0492 13.6963 14.0492 13.8732 13.8741C14.0505 13.7033 14.0505 13.4188 13.8732 13.2437Z" fill="#B4B4B4"/>
</g>
</g>
</svg>
